<svg width="24" height="22" viewBox="0 0 24 22" fill="none" xmlns="http://www.w3.org/2000/svg">
<path id="Vector" d="M18.6386 12.2804C21.2681 12.2804 23.1071 14.5184 23.1071 17.2709C23.1071 18.6554 22.0151 19.7804 20.6741 19.7804H19.9031C19.5656 19.7804 19.3121 19.4834 19.3526 19.1474C19.3721 18.9719 19.3826 18.7934 19.3826 18.6119V17.8664C19.3826 16.1324 18.8576 14.5169 17.9576 13.1669C17.7056 12.7874 17.9576 12.2804 18.4106 12.2804H18.6386ZM17.4821 10.7804C15.8276 10.7804 14.4821 9.26691 14.4821 7.40541C14.4821 5.35641 15.6596 4.03041 17.4821 4.03041C19.3046 4.03041 20.4821 5.35641 20.4821 7.40541C20.4821 9.26691 19.1366 10.7804 17.4821 10.7804ZM10.6151 11.5304C14.1941 11.5304 17.1071 14.3729 17.1071 17.8664V18.6119C17.1071 20.0834 15.8816 21.2804 14.3726 21.2804H3.3416C1.8326 21.2804 0.607101 20.0834 0.607101 18.6119V17.8664C0.607101 14.3729 3.5186 11.5304 7.0991 11.5304H10.6151ZM12.9821 4.78041C12.9821 7.26291 11.1326 9.28041 8.8571 9.28041C6.5831 9.28041 4.7321 7.26291 4.7321 4.78041C4.7321 2.00541 6.3131 0.280411 8.8571 0.280411C11.4026 0.280411 12.9821 2.00541 12.9821 4.78041Z" fill="#1877F2"/>
</svg>
