<svg width="26" height="26" viewBox="0 0 26 26" fill="none" xmlns="http://www.w3.org/2000/svg">
<path id="Vector" d="M24.0576 13C24.0576 6.89326 19.1067 1.9423 13 1.9423C6.89322 1.9423 1.94226 6.89326 1.94226 13C1.94226 19.1067 6.89322 24.0577 13 24.0577C19.1067 24.0577 24.0576 19.1067 24.0576 13ZM25.5 13C25.5 19.9038 19.9038 25.5 13 25.5C6.09611 25.5 0.499954 19.9038 0.499954 13C0.499954 6.09615 6.09611 0.499992 13 0.499992C19.9038 0.499992 25.5 6.09615 25.5 13ZM6.72976 13H6.87592C7.1663 13 7.3288 13.325 7.16726 13.5683C6.59034 14.4336 6.25284 15.4692 6.25284 16.5808V17.0586C6.25284 17.175 6.25957 17.2894 6.27303 17.4019C6.29803 17.6173 6.13649 17.8077 5.92015 17.8077H5.42592C4.56534 17.8077 3.86534 17.0865 3.86534 16.199C3.86534 14.4346 5.04515 13 6.72976 13ZM19.2701 13C20.9557 13 22.1346 14.4346 22.1346 16.199C22.1346 17.0865 21.4346 17.8077 20.575 17.8077H20.0807C19.8644 17.8077 19.7019 17.6173 19.7278 17.4019C19.7403 17.2894 19.7471 17.175 19.7471 17.0586V16.5808C19.7471 15.4692 19.4105 14.4336 18.8336 13.5683C18.6721 13.325 18.8336 13 19.124 13H19.2701ZM7.47111 12.0385C6.41053 12.0385 5.54803 11.0683 5.54803 9.87499C5.54803 8.56153 6.30284 7.71153 7.47111 7.71153C8.63938 7.71153 9.39419 8.56153 9.39419 9.87499C9.39419 11.0683 8.53168 12.0385 7.47111 12.0385ZM18.5288 12.0385C17.4682 12.0385 16.6057 11.0683 16.6057 9.87499C16.6057 8.56153 17.3605 7.71153 18.5288 7.71153C19.6971 7.71153 20.4519 8.56153 20.4519 9.87499C20.4519 11.0683 19.5894 12.0385 18.5288 12.0385ZM14.1269 12.5192C16.4211 12.5192 18.2884 14.3413 18.2884 16.5808V17.0586C18.2884 18.0019 17.5028 18.7692 16.5355 18.7692H9.46438C8.49707 18.7692 7.71149 18.0019 7.71149 17.0586V16.5808C7.71149 14.3413 9.57784 12.5192 11.873 12.5192H14.1269ZM15.6442 8.1923C15.6442 9.78365 14.4586 11.0769 13 11.0769C11.5423 11.0769 10.3557 9.78365 10.3557 8.1923C10.3557 6.41345 11.3692 5.30768 13 5.30768C14.6317 5.30768 15.6442 6.41345 15.6442 8.1923Z" fill="#1877F2"/>
</svg>
