<svg width="27" height="27" viewBox="0 0 27 27" fill="none" xmlns="http://www.w3.org/2000/svg">
<g id="BookmarkSimple">
<path id="Vector" d="M19.4063 3.37501H7.59377C7.14621 3.37501 6.71699 3.5528 6.40052 3.86926C6.08405 4.18573 5.90627 4.61495 5.90627 5.06251V23.625C5.90634 23.7756 5.94671 23.9234 6.02319 24.0531C6.09966 24.1828 6.20946 24.2897 6.34118 24.3627C6.4729 24.4356 6.62174 24.472 6.77227 24.468C6.92279 24.4641 7.06951 24.4199 7.1972 24.3401L13.5 20.4008L19.8039 24.3401C19.9316 24.4196 20.0782 24.4636 20.2285 24.4674C20.3789 24.4712 20.5276 24.4348 20.6591 24.3619C20.7907 24.2889 20.9003 24.1822 20.9768 24.0526C21.0532 23.9231 21.0936 23.7754 21.0938 23.625V5.06251C21.0938 4.61495 20.916 4.18573 20.5995 3.86926C20.283 3.5528 19.8538 3.37501 19.4063 3.37501Z" fill="#1877F2"/>
</g>
</svg>
